# xmcd CD database file
#
# Track frame offsets:
#	150
#	19987
#	39192
#	58892
#	89450
#	101192
#	110267
#	128717
#	146810
#	160155
#	187332
#	201445
#	214257
#	226722
#	241870
#
# Disc length: 3428 seconds
#
# Revision: 4
# Processed by: cddbd v1.5.2PL0 Copyright (c) Steve Scherf et al.
# Submitted via: CDex 1.51
#
DISCID=d90d620f
DTITLE=Various  - American Folk Blues Festival '64 [CD4] (Vanguard)
DYEAR=0
DGENRE=Blues
TTITLE0=Sonny Boy Williamson, Hubert Sumlin - I'm Trying to Make London My Home
TTITLE1=Sonny Boy Williamson, H. Sumlin, Sunnyland Slim, Willie Dixon, Clifton James - Dissatisfied
TTITLE2=Sunnyland Slim, H.Slim, W.Dixon, C.James - Everytime I Get To Drinkin'
TTITLE3=Lightnin' Hopkins - Ain't It a Pity
TTITLE4=Lightnin' Hopkins - Baby Please Don't Go
TTITLE5=Sleepy John Estes, Hammie Nixon - I'm A Tearing Little Daddy
TTITLE6=John Henry Barbee - I Ain't Gonna Pick No More Cotton
TTITLE7=Hubert Sumlin, Sunnyland Slim, W.Dixon, C.James - No Title Boogie
TTITLE8=Sugar Pie DeSanto, S.Slim, H.Sumlin, W.Dixon, C.James - Slip-In Mules
TTITLE9=Howlin' Wolf, S.Slim, H.Sumlin, W.Dixon, C.James - Dust My Broom
TTITLE10=Sonny Boy Williamson, H.Sumlin - I Got To Cut Out
TTITLE11=Willie Dixon - Weak Brain and Narrow Mind
TTITLE12=Willie Dixon - Big Legged Woman
TTITLE13=Sleepy John Estes, Hammie Nixon - Your Best Friend's Gone
TTITLE14=Baby What You Want Me To Do
EXTD=Recorded live in Hamburg, Germany on October 9, 1964. YEAR: 0
EXTT0=
EXTT1=
EXTT2=
EXTT3=
EXTT4=
EXTT5=
EXTT6=
EXTT7=
EXTT8=
EXTT9=
EXTT10=
EXTT11=
EXTT12=
EXTT13=
EXTT14=
PLAYORDER=
